<svg width="16" height="16" viewBox="0 0 16 16" fill="none" xmlns="http://www.w3.org/2000/svg">
<g clip-path="url(#clip0_223_80)">
<path fill-rule="evenodd" clip-rule="evenodd" d="M9.78694 1.93719L7.44835 0.638672L5.10973 1.93719L2.53789 2.67265L1.80242 5.2445L0.503906 7.58312L1.80242 9.92171L2.53789 12.4935L5.10973 13.229L7.44835 14.5275L9.78694 13.229L12.3589 12.4935L13.0943 9.92171L14.3928 7.58312L13.0943 5.2445L12.3589 2.67265L9.78694 1.93719ZM10.8559 6.04556C11.1573 5.69777 11.1197 5.17146 10.7719 4.87004C10.4241 4.56861 9.89777 4.60622 9.59635 4.95401L6.61502 8.39405L5.30031 6.87708C4.99889 6.52929 4.4726 6.4917 4.1248 6.79312C3.777 7.09454 3.7394 7.62084 4.04083 7.96863L5.98528 10.2122C6.14356 10.3949 6.37334 10.4998 6.61502 10.4998C6.8567 10.4998 7.08647 10.3949 7.24476 10.2122L10.8559 6.04556Z" fill="#0CAF60"/>
</g>
<defs>
<clipPath id="clip0_223_80">
<rect width="15" height="15" fill="white" transform="translate(0.0546875 0.5)"/>
</clipPath>
</defs>
</svg>
